<?xml version="1.0" standalone="no"?>
<!DOCTYPE svg PUBLIC "-//W3C//DTD SVG 20010904//EN"
 "http://www.w3.org/TR/2001/REC-SVG-20010904/DTD/svg10.dtd">
<svg version="1.0" xmlns="http://www.w3.org/2000/svg"
 width="260.000000pt" height="260.000000pt" viewBox="0 0 260.000000 260.000000"
 preserveAspectRatio="xMidYMid meet">
<metadata>
Created by potrace 1.14, written by Peter Selinger 2001-2017
</metadata>
<g transform="translate(0.000000,260.000000) scale(0.100000,-0.100000)"
fill="#000000" stroke="none">
<path d="M1270 2292 c-13 -9 -21 -11 -16 -4 4 6 2 12 -3 12 -6 0 -11 -5 -11
-11 0 -5 -4 -8 -9 -4 -6 3 -8 -4 -6 -15 2 -11 0 -18 -4 -15 -5 3 -12 -3 -15
-12 -6 -15 -8 -14 -20 2 -10 14 -15 15 -21 5 -6 -9 -4 -11 5 -5 9 6 11 4 5 -4
-5 -9 -10 -10 -18 -2 -14 14 -30 14 -22 1 3 -5 1 -10 -4 -10 -6 0 -11 -5 -11
-11 0 -5 5 -7 12 -3 7 4 8 3 4 -4 -4 -7 -14 -12 -22 -12 -9 0 -13 -5 -9 -12 4
-7 -1 -4 -11 7 -15 18 -16 18 -10 1 5 -14 3 -17 -10 -12 -14 5 -15 4 -4 -9 12
-14 7 -19 -13 -16 -5 1 -6 -3 -3 -8 4 -5 2 -12 -4 -16 -5 -3 -10 0 -10 7 -1 7
-7 0 -14 -17 -10 -25 -10 -32 1 -43 18 -18 16 -27 -2 -12 -13 11 -14 10 -9 -4
3 -9 1 -16 -6 -16 -6 0 -8 -4 -5 -10 3 -5 2 -10 -4 -10 -5 0 -12 6 -14 13 -3
7 -6 4 -6 -6 -1 -11 -6 -15 -12 -11 -8 4 -8 0 0 -15 9 -16 9 -21 -1 -21 -9 0
-9 -3 2 -10 8 -5 10 -10 5 -10 -6 0 -9 -17 -7 -40 3 -27 9 -40 19 -40 9 0 11
-5 7 -12 -5 -9 -2 -9 9 1 9 7 17 12 18 10 7 -38 7 -61 0 -50 -7 10 -9 7 -8
-12 1 -14 6 -23 11 -19 5 3 7 -5 4 -16 -4 -15 -3 -20 5 -15 22 14 36 11 30 -5
-5 -11 -3 -13 6 -7 11 6 11 3 0 -16 -12 -23 -11 -23 6 -9 17 14 18 13 12 -4
-6 -15 -5 -17 6 -7 15 12 22 7 42 -28 5 -9 4 -12 -3 -7 -6 3 -14 1 -18 -6 -4
-7 -4 -10 1 -6 4 4 17 3 28 -3 14 -8 18 -8 13 0 -4 6 -4 11 -1 11 3 0 11 -13
16 -30 6 -16 15 -30 21 -30 5 0 6 5 3 11 -4 6 1 6 12 -2 15 -9 20 -23 19 -61
0 -30 -4 -47 -10 -45 -6 2 -16 -3 -23 -12 -10 -14 -11 -12 -7 9 5 20 3 22 -5
10 -9 -12 -11 -10 -11 13 0 16 -4 26 -10 22 -5 -3 -10 -2 -10 3 0 5 -13 9 -30
8 -16 0 -30 -5 -30 -10 0 -4 -8 -2 -17 5 -11 10 -14 10 -9 2 4 -7 2 -13 -3
-13 -6 0 -11 4 -11 10 0 5 -7 7 -15 4 -8 -4 -15 -10 -15 -16 0 -5 6 -6 13 -2
8 5 8 3 -2 -9 -7 -9 -17 -14 -22 -11 -5 3 -9 2 -8 -3 3 -20 -2 -25 -16 -13
-13 11 -14 10 -9 -4 3 -9 1 -16 -5 -16 -6 0 -11 -5 -11 -11 0 -5 5 -7 12 -3 7
5 8 3 4 -5 -5 -7 -14 -10 -22 -7 -8 3 -17 -1 -20 -9 -4 -8 -10 -13 -15 -10 -4
3 -6 -4 -4 -15 2 -11 0 -18 -6 -15 -5 4 -12 -1 -15 -10 -6 -13 -8 -14 -15 -3
-7 10 -9 8 -10 -7 -5 -55 -4 -82 4 -99 6 -12 5 -16 -1 -12 -6 3 -13 -3 -17
-14 -4 -11 -11 -18 -16 -15 -5 4 -9 1 -9 -5 0 -6 -4 -8 -10 -5 -6 4 -7 -1 -3
-11 5 -13 3 -15 -8 -9 -11 7 -12 6 -2 -6 9 -11 9 -19 2 -26 -8 -8 -7 -13 2
-18 8 -5 10 -4 5 3 -4 7 -2 12 3 12 12 0 15 -13 4 -23 -10 -11 -13 -58 -2 -52
5 4 6 -3 0 -17 -5 -13 -10 -27 -12 -33 -2 -5 -8 -10 -14 -10 -14 -1 -52 -24
-39 -25 5 0 16 6 24 13 11 9 11 8 0 -7 -8 -11 -14 -28 -12 -39 2 -10 0 -17 -6
-14 -5 4 -9 -1 -9 -9 0 -8 5 -13 11 -11 6 3 11 -9 12 -27 1 -17 -1 -25 -3 -18
-3 6 -9 12 -14 12 -4 0 -5 -7 -2 -17 4 -11 3 -14 -5 -9 -7 4 -12 2 -12 -3 0
-6 -8 -11 -17 -11 -15 0 -16 -2 -3 -10 13 -8 12 -10 -4 -10 -15 0 -17 -3 -9
-11 6 -6 9 -18 6 -27 -5 -11 -2 -13 8 -8 8 4 6 1 -3 -7 -10 -8 -14 -18 -10
-23 4 -4 0 -3 -10 4 -12 10 -18 10 -24 1 -5 -8 -3 -10 7 -4 8 4 3 -3 -11 -16
-14 -13 -20 -20 -13 -15 10 6 12 4 7 -8 -6 -15 -20 -20 -52 -19 -9 1 -10 -3
-2 -12 8 -10 6 -15 -10 -20 -11 -3 -18 -10 -15 -15 6 -9 -21 -7 -31 3 -4 3
-15 2 -25 -4 -13 -6 -19 -6 -19 1 0 5 5 10 12 10 6 0 8 3 5 6 -4 4 -12 2 -19
-3 -21 -17 -54 -21 -74 -10 -24 14 -55 17 -48 5 4 -5 13 -7 21 -4 8 3 12 2 9
-2 -5 -9 -94 -7 -103 2 -3 3 -14 1 -24 -5 -13 -6 -19 -6 -19 1 0 5 5 10 12 10
6 0 8 3 5 6 -4 4 -12 2 -19 -3 -21 -17 -54 -21 -74 -10 -24 14 -55 17 -48 5 4
-5 13 -7 21 -4 8 3 11 2 8 -3 -3 -6 -22 -7 -42 -4 -23 4 -34 2 -30 -4 3 -5 -6
-23 -21 -39 -15 -17 -21 -23 -14 -14 10 14 9 17 -3 17 -8 0 -12 -4 -9 -8 2 -4
-1 -11 -7 -14 -5 -4 -8 -13 -5 -21 3 -7 0 -16 -6 -20 -7 -4 -8 -3 -4 4 4 7 2
12 -3 12 -6 0 -11 -6 -11 -12 0 -9 -4 -8 -10 2 -8 11 -10 -2 -9 -46 2 -58 3
-61 26 -58 13 1 21 -2 17 -7 -3 -5 0 -9 6 -9 7 0 9 -7 6 -16 -3 -8 -2 -12 4
-9 6 3 10 1 10 -5 0 -6 5 -8 10 -5 6 3 10 -2 10 -12 0 -15 2 -16 11 -3 8 12 9
8 5 -15 -3 -16 -3 -25 0 -18 3 7 12 9 20 6 7 -3 11 -10 7 -16 -4 -6 0 -8 10
-4 12 4 15 1 12 -14 -2 -11 0 -17 6 -14 5 4 9 1 9 -6 0 -6 8 -9 19 -6 15 4 18
0 16 -19 -1 -13 1 -21 5 -19 4 3 13 -2 20 -10 12 -14 44 -9 34 6 -3 5 2 6 10
3 8 -3 22 -21 31 -41 16 -34 17 -34 38 -16 11 10 17 13 14 7 -4 -7 3 -11 18
-11 14 0 25 4 25 10 0 6 7 2 16 -9 14 -17 15 -17 10 -1 -4 12 -2 16 7 11 31
-18 36 -26 27 -44 -8 -15 -5 -16 17 -12 20 4 24 2 18 -9 -7 -12 -6 -11 9 0 14
12 19 12 26 2 6 -11 9 -11 13 0 4 12 7 11 16 -1 7 -10 11 -11 11 -2 0 6 5 12
11 12 5 0 7 -6 3 -12 -6 -10 -4 -10 7 0 17 16 32 16 23 0 -6 -10 -4 -10 8 0 9
7 19 9 22 4 3 -5 20 -8 37 -6 24 3 30 1 26 -11 -4 -8 2 -16 14 -20 10 -4 17
-11 14 -16 -4 -5 -1 -9 4 -9 6 0 11 6 11 13 0 8 4 7 10 -3 9 -13 10 -13 10 0
0 13 1 13 10 0 6 -9 10 -11 10 -3 0 7 7 10 17 6 11 -5 14 -3 8 6 -4 8 4 6 19
-4 15 -10 26 -13 26 -6 0 6 9 11 21 11 11 0 18 -3 16 -7 -3 -5 13 -8 34 -8 30
0 38 3 34 14 -4 10 1 8 15 -4 18 -16 23 -17 30 -5 8 13 10 13 10 1 0 -11 4 -9
15 5 8 11 15 14 15 7 0 -7 5 -13 11 -13 6 0 9 7 5 15 -3 10 1 15 12 15 13 0
14 2 4 9 -11 7 -11 9 1 14 8 3 18 3 21 -1 10 -10 37 -11 30 -1 -8 13 10 11 25
-4 11 -9 13 -9 7 1 -9 16 6 16 23 -1 11 -9 13 -9 7 0 -4 7 -3 13 1 13 5 0 15
-6 22 -13 11 -9 13 -9 7 1 -8 13 10 17 18 4 7 -12 42 -8 59 7 13 10 17 9 26
-6 8 -13 10 -14 11 -4 0 11 3 12 11 4 9 -9 16 -9 31 0 15 10 21 9 28 -3 5 -8
10 -10 10 -5 0 6 9 11 20 12 13 1 18 -2 14 -10 -5 -8 -3 -8 7 0 17 17 32 17
23 0 -6 -9 -4 -9 7 1 18 17 32 15 25 -4 -5 -12 -2 -15 10 -10 12 5 14 1 9 -14
-4 -14 -2 -20 7 -18 7 2 12 -3 10 -11 -3 -12 0 -12 12 -1 19 15 21 24 4 14 -7
-5 -8 -3 -4 5 6 9 13 8 29 -6 19 -17 20 -17 14 0 -6 16 -5 17 14 3 14 -10 29
-12 43 -6 13 4 29 4 39 -1 11 -7 17 -6 17 1 0 8 6 8 20 0 11 -6 20 -7 20 -1 0
5 7 12 16 15 13 5 14 4 6 -7 -9 -10 -6 -13 16 -11 15 1 36 6 46 10 14 5 17 4
12 -4 -10 -17 2 -15 20 2 11 11 11 16 1 19 -7 3 -4 6 6 6 10 1 15 6 12 11 -3
6 -1 10 5 10 6 0 8 5 4 12 -4 7 -3 8 5 4 6 -4 8 -13 4 -19 -4 -7 1 -6 11 2 15
13 19 13 27 0 6 -10 9 -10 9 -1 0 6 5 12 11 12 5 0 7 -6 3 -13 -5 -8 -2 -8 9
2 14 11 17 11 17 0 0 -8 6 -5 15 7 8 10 15 15 14 9 -3 -24 2 -27 16 -9 8 10
15 15 14 9 -3 -24 2 -28 14 -10 11 14 16 15 22 5 6 -9 4 -11 -5 -5 -9 5 -11 4
-6 -4 6 -8 12 -9 20 -2 9 7 16 7 25 -2 11 -10 12 -8 7 8 -3 12 2 30 15 45 11
14 18 19 14 13 -4 -8 1 -13 12 -13 11 0 25 6 32 13 12 10 13 9 7 -7 -6 -17 -4
-17 16 -4 13 7 33 13 45 12 12 -1 20 2 18 7 -3 4 -1 10 5 14 6 4 8 10 5 15 -3
5 0 12 6 16 8 4 9 3 5 -4 -4 -7 -4 -12 1 -13 4 0 16 -2 26 -4 9 -2 15 1 11 6
-3 5 -10 6 -16 3 -7 -4 -8 -2 -4 4 4 7 15 8 30 2 26 -9 58 3 35 14 -10 4 -11
7 -2 12 7 3 9 13 6 22 -4 13 -2 12 11 -3 11 -14 15 -15 14 -5 -2 8 3 14 10 12
8 -1 11 2 7 8 -3 5 -1 10 6 10 7 0 9 8 6 21 -5 17 -3 18 9 8 12 -10 16 -8 21
9 3 12 10 19 15 16 6 -4 7 2 3 17 -7 22 -7 22 9 6 23 -22 29 -22 17 2 -8 15
-7 18 6 17 9 0 22 8 27 20 6 11 17 19 24 16 10 -3 13 10 11 52 -1 32 -7 60
-12 63 -6 3 -7 1 -4 -4 4 -6 0 -13 -8 -17 -8 -3 -17 0 -21 6 -5 7 -2 8 7 4 8
-5 8 -2 -2 6 -9 7 -14 18 -12 25 2 6 -1 15 -8 19 -7 4 -9 3 -6 -2 3 -5 -3 -10
-13 -10 -13 0 -17 7 -15 23 1 13 -2 20 -8 16 -6 -4 -8 0 -4 10 5 13 2 15 -18
7 -19 -7 -27 -5 -34 8 -10 16 -10 16 -11 -1 0 -12 -4 -16 -12 -10 -7 4 -21 6
-30 5 -10 -2 -18 2 -18 8 0 8 -6 8 -21 0 -11 -6 -25 -9 -32 -7 -7 2 -20 0 -29
-5 -12 -5 -18 -5 -18 2 0 5 5 10 12 10 6 0 8 3 5 6 -4 4 -12 2 -19 -3 -21 -17
-54 -21 -74 -10 -24 14 -55 17 -48 5 4 -5 13 -7 21 -4 8 3 12 2 9 -2 -6 -10
-90 -7 -107 4 -22 13 -50 13 -39 -1 11 -14 -25 -14 -37 0 -5 4 -1 5 7 1 8 -4
7 -1 -3 7 -14 11 -15 16 -5 20 8 4 7 6 -4 6 -10 1 -18 6 -18 12 0 5 -4 8 -9 5
-5 -3 -15 2 -22 11 -12 14 -12 15 -1 9 11 -7 12 -4 3 13 -7 11 -14 21 -17 21
-3 0 -2 -4 1 -10 3 -5 1 -10 -4 -10 -6 0 -11 7 -11 15 0 8 -6 15 -13 15 -13 0
-16 44 -4 57 11 10 8 23 -5 23 -20 1 -58 37 -58 55 0 9 5 13 11 9 6 -3 3 5 -6
20 -17 25 -17 26 1 20 16 -6 17 -5 7 7 -15 16 -17 33 -3 24 6 -3 7 1 4 10 -4
9 -9 13 -12 10 -3 -3 -15 3 -26 12 -20 17 -20 17 -7 1 9 -12 10 -18 2 -18 -6
0 -12 6 -13 13 0 6 -2 17 -2 22 -1 6 -5 16 -10 24 -6 9 -5 12 1 8 6 -4 11 4
11 18 0 15 -5 22 -12 18 -6 -3 -6 0 2 8 6 7 12 22 12 34 0 12 -6 27 -12 34
-11 11 -10 13 5 8 15 -6 16 -4 7 14 -9 15 -15 18 -24 9 -10 -8 -15 -5 -19 11
-3 13 -10 18 -17 14 -9 -6 -9 -2 -1 13 14 26 14 35 1 27 -6 -3 -7 1 -4 9 3 9
11 16 17 16 6 0 2 7 -9 16 -10 8 -13 13 -6 9 8 -4 11 1 8 17 -3 13 -5 27 -5
31 -1 5 -6 5 -12 1 -8 -4 -7 -9 2 -15 8 -5 10 -9 6 -9 -5 0 -21 10 -35 22 -18
14 -21 19 -8 14 15 -5 14 -2 -5 18 -13 14 -26 20 -30 15 -3 -5 -11 2 -17 16
-7 15 -10 31 -6 36 3 5 2 9 -3 8 -17 -3 -53 14 -48 22 3 4 -4 13 -15 19 -11 6
-20 8 -20 4 0 -3 -8 0 -17 7 -9 8 -14 9 -10 3 4 -7 0 -14 -8 -18 -10 -3 -15 1
-15 12 0 13 -2 14 -9 3 -5 -7 -13 -11 -19 -7 -5 3 -16 -2 -23 -11 -12 -14 -12
-16 1 -9 8 4 6 0 -5 -9 -11 -9 -19 -21 -17 -26 1 -6 -5 -6 -17 0 -10 6 -21 8
-23 5 -3 -3 -5 7 -5 20 0 15 4 23 10 19 6 -4 7 -1 1 8 -13 21 -14 40 -1 32 6
-4 8 0 4 10 -4 12 -1 15 17 11 20 -3 23 0 21 20 -2 17 1 23 10 20 7 -3 16 0
20 5 3 6 12 8 18 4 8 -4 7 -1 -1 9 -10 13 -10 18 -1 24 8 5 9 3 4 -6 -6 -9 -4
-11 4 -6 7 5 10 14 7 22 -5 12 -2 12 15 3 13 -7 19 -7 15 -1 -3 6 1 17 9 26 9
8 16 18 15 21 -1 23 3 27 10 10 5 -11 9 -14 9 -7 1 7 5 11 10 8 5 -3 11 1 15
9 3 8 0 15 -6 15 -7 0 -6 6 3 16 10 13 10 17 -1 24 -20 12 7 43 32 37 10 -3
16 -1 12 4 -3 5 1 9 8 9 11 0 10 2 0 9 -11 6 -10 10 3 15 14 5 15 9 5 21 -7 8
-13 28 -14 44 -2 24 1 28 11 19 11 -8 12 -7 7 6 -3 9 -13 16 -21 16 -9 0 -11
5 -7 13 5 8 2 8 -9 -2 -15 -12 -17 -11 -17 8 0 11 -5 21 -11 21 -6 0 -7 5 -2
13 14 22 10 55 -6 49 -9 -3 -12 -1 -7 6 5 8 -1 12 -18 12 -14 0 -28 4 -31 10
-3 5 0 7 8 4 8 -3 14 1 14 10 0 8 -6 12 -15 8 -10 -3 -13 -1 -8 6 4 7 -1 10
-13 7 -15 -3 -18 0 -14 12 4 11 2 14 -5 9 -11 -6 -17 12 -13 37 1 5 -3 6 -9 2
-6 -3 -7 -12 -3 -18 5 -9 3 -9 -8 0 -12 10 -18 10 -29 0 -10 -9 -11 -9 -6 1 4
6 2 12 -3 12 -6 0 -11 -6 -11 -12 0 -20 -31 30 -33 52 -2 25 -6 25 -23 3 -10
-13 -13 -14 -14 -4 0 10 -3 11 -14 2 -11 -9 -16 -9 -22 0 -5 8 -3 9 6 4 9 -5
11 -4 6 3 -9 14 -5 15 -36 -6z m-130 -718 c0 -8 -19 -13 -24 -6 -3 5 1 9 9 9
8 0 15 -2 15 -3z m465 -52 c-3 -3 -11 0 -18 7 -9 10 -8 11 6 5 10 -3 15 -9 12
-12z m250 -602 c3 -6 -1 -7 -9 -4 -18 7 -21 14 -7 14 6 0 13 -4 16 -10z"/>
<path d="M1195 1620 c-3 -5 -1 -10 4 -10 6 0 11 5 11 10 0 6 -2 10 -4 10 -3 0
-8 -4 -11 -10z"/>
</g>
</svg>
